<svg xmlns="http://www.w3.org/2000/svg" width="800" height="800" viewBox="55 62 690 690">
  <circle cx="400" cy="407" r="390" fill="#ffffff"/>
  <g fill="#0f172a" fill-rule="evenodd">
    <path d="M 315.0,634.5 L 300.0,628.5 L 284.0,619.5 L 261.0,603.5 L 237.0,582.5 L 220.5,564.0 L 202.5,540.0 L 187.5,514.0 L 177.5,493.0 L 168.5,469.0 L 160.5,437.0 L 156.5,403.0 L 156.5,374.0 L 160.5,340.0 L 166.5,314.0 L 172.5,297.0 L 177.5,287.0 L 177.5,284.0 L 192.5,256.0 L 205.5,236.0 L 219.5,219.0 L 241.0,197.5 L 256.0,185.5 L 284.0,167.5 L 304.0,157.5 L 329.0,148.5 L 354.0,142.5 L 376.0,139.5 L 412.0,139.5 L 413.5,141.0 L 413.0,169.5 L 373.0,170.5 L 334.0,178.5 L 332.0,180.5 L 318.0,184.5 L 292.0,197.5 L 258.0,222.5 L 233.5,248.0 L 216.5,272.0 L 200.5,304.0 L 192.5,327.0 L 192.5,332.0 L 188.5,345.0 L 184.5,378.0 L 184.5,409.0 L 191.5,450.0 L 202.5,483.0 L 216.5,511.0 L 237.5,542.0 L 266.0,571.5 L 287.0,587.5 L 288.5,581.0 L 283.5,391.0 L 287.5,365.0 L 293.5,348.0 L 300.5,334.0 L 314.5,315.0 L 325.0,304.5 L 342.0,292.5 L 361.0,283.5 L 385.0,277.5 L 412.0,277.5 L 413.5,279.0 L 413.0,305.5 L 393.0,304.5 L 380.0,306.5 L 363.0,312.5 L 352.0,318.5 L 341.0,327.5 L 328.5,341.0 L 317.5,360.0 L 312.5,374.0 L 309.5,391.0 L 309.5,423.0 L 313.5,532.0 L 315.0,634.5 Z"/>
    <path d="M 421.0,659.5 L 397.5,658.0 L 398.0,630.5 L 440.0,630.5 L 458.0,627.5 L 476.0,621.5 L 480.0,621.5 L 503.0,612.5 L 527.0,599.5 L 550.0,582.5 L 565.5,568.0 L 587.5,541.0 L 602.5,516.0 L 617.5,479.0 L 617.5,474.0 L 619.5,472.0 L 624.5,446.0 L 626.5,426.0 L 626.5,400.0 L 624.5,378.0 L 619.5,351.0 L 617.5,349.0 L 617.5,344.0 L 609.5,321.0 L 595.5,292.0 L 580.5,268.0 L 552.0,235.5 L 539.0,223.5 L 527.0,215.5 L 525.5,219.0 L 525.5,424.0 L 521.5,445.0 L 515.5,462.0 L 507.5,477.0 L 497.5,491.0 L 484.0,504.5 L 469.0,515.5 L 444.0,526.5 L 428.0,530.5 L 401.0,531.5 L 396.5,530.0 L 396.0,504.5 L 423.0,504.5 L 439.0,500.5 L 455.0,492.5 L 472.0,479.5 L 479.5,471.0 L 487.5,459.0 L 496.5,438.0 L 499.5,421.0 L 499.5,166.0 L 502.0,165.5 L 529.0,179.5 L 550.0,194.5 L 574.0,215.5 L 600.5,247.0 L 623.5,284.0 L 641.5,328.0 L 648.5,353.0 L 648.5,359.0 L 652.5,375.0 L 654.5,396.0 L 654.5,429.0 L 651.5,456.0 L 645.5,478.0 L 645.5,483.0 L 643.5,485.0 L 643.5,489.0 L 638.5,500.0 L 638.5,503.0 L 628.5,527.0 L 619.5,541.0 L 618.5,545.0 L 615.5,547.0 L 614.5,551.0 L 606.5,563.0 L 591.5,582.0 L 569.0,603.5 L 534.0,628.5 L 500.0,644.5 L 460.0,655.5 L 421.0,659.5 Z"/>
  </g>
  <text x="401" y="452" text-anchor="middle" font-family="Times New Roman, Georgia, serif" font-size="76" fill="#0f172a">MB</text>
</svg>
